HIERARCHY
ROOT Hips
{
    OFFSET 0.0 0.0 0.0
    CHANNELS 6 Xposition Yposition Zposition Zrotation Xrotation Yrotation
    JOINT LeftHipJoint
    {
        OFFSET 0.1 0.0 0.0
        CHANNELS 3 Zrotation Xrotation Yrotation
        JOINT LeftUpLeg
        {
            OFFSET 119.20732255768172 0.0 0.0
            CHANNELS 3 Zrotation Xrotation Yrotation
            JOINT LeftLeg
            {
                OFFSET 0.0 0.0 -418.5223670080593
                CHANNELS 3 Zrotation Xrotation Yrotation
                JOINT LeftFoot
                {
                    OFFSET 0.0 0.0 -406.2559653053644
                    CHANNELS 3 Zrotation Xrotation Yrotation
                    End Site
                    {
                        OFFSET 0.0 -0.1 0.0
                    }
                }
            }
        }
    }
    JOINT LowerBack
    {
        OFFSET 0.0 0.0 0.1
        CHANNELS 3 Zrotation Xrotation Yrotation
        JOINT Spine
        {
            OFFSET 0.0 0.0 219.40949942417566
            CHANNELS 3 Zrotation Xrotation Yrotation
            JOINT Spine1
            {
                OFFSET 0.0 0.0 255.2651220699739
                CHANNELS 3 Zrotation Xrotation Yrotation
                JOINT LeftShoulder
                {
                    OFFSET 0.1 0.0 0.0
                    CHANNELS 3 Zrotation Xrotation Yrotation
                    JOINT LeftArm
                    {
                        OFFSET 139.01793727492395 0.0 0.0
                        CHANNELS 3 Zrotation Xrotation Yrotation
                        JOINT LeftForeArm
                        {
                            OFFSET 258.14172763583804 0.0 0.0
                            CHANNELS 3 Zrotation Xrotation Yrotation
                            JOINT LeftHand
                            {
                                OFFSET 239.36303673665344 0.0 0.0
                                CHANNELS 3 Zrotation Xrotation Yrotation
                                End Site
                                {
                                    OFFSET 0.1 0.0 0.0
                                }
                            }
                        }
                    }
                }
                JOINT Neck
                {
                    OFFSET 0.0 0.0 0.1
                    CHANNELS 3 Zrotation Xrotation Yrotation
                    JOINT Neck1
                    {
                        OFFSET 0.0 0.0 108.64757595866789
                        CHANNELS 3 Zrotation Xrotation Yrotation
                        End Site
                        {
                            OFFSET 0.0 0.0 113.7283032786169
                        }
                    }
                }
                JOINT RightShoulder
                {
                    OFFSET -0.1 0.0 0.0
                    CHANNELS 3 Zrotation Xrotation Yrotation
                    JOINT RightArm
                    {
                        OFFSET -139.01793727492395 0.0 0.0
                        CHANNELS 3 Zrotation Xrotation Yrotation
                        JOINT RightForeArm
                        {
                            OFFSET -258.14172763583804 0.0 0.0
                            CHANNELS 3 Zrotation Xrotation Yrotation
                            JOINT RightHand
                            {
                                OFFSET -239.36303673665344 0.0 0.0
                                CHANNELS 3 Zrotation Xrotation Yrotation
                                End Site
                                {
                                    OFFSET -0.1 0.0 0.0
                                }
                            }
                        }
                    }
                }
            }
        }
    }
    JOINT RightHipJoint
    {
        OFFSET -0.1 0.0 0.0
        CHANNELS 3 Zrotation Xrotation Yrotation
        JOINT RightUpLeg
        {
            OFFSET -119.20732255768172 0.0 0.0
            CHANNELS 3 Zrotation Xrotation Yrotation
            JOINT RightLeg
            {
                OFFSET 0.0 0.0 -418.5223670080593
                CHANNELS 3 Zrotation Xrotation Yrotation
                JOINT RightFoot
                {
                    OFFSET 0.0 0.0 -406.2559653053644
                    CHANNELS 3 Zrotation Xrotation Yrotation
                    End Site
                    {
                        OFFSET 0.0 -0.1 0.0
                    }
                }
            }
        }
    }
}
MOTION
Frames: 6
Frame Time: 0.03333333333333333
0.0 0.0 829.4182617930519 30.57007147010475 4.7159702442510945 3.2673607750589135 1.3793457181406746e-33 -3.975693351829396e-16 3.975693351829396e-16 -0.980326262632924 -16.41425214839476 -0.4953164871827285 1.345964496951772 24.307745097251196 -1.1290225683739443 0.0 0.0 -3.975693351829396e-16 1.3793457181406746e-33 -3.975693351829396e-16 3.975693351829396e-16 -0.10174852558570266 -1.7468425505599254 2.085311826193129 -0.07266714169574358 -1.9966702933970613e-16 1.391366335968789e-15 0.0 0.0 -1.4908850069360235e-16 -14.963706698180014 21.537241956833764 73.07409781623531 -55.61699305017427 -3.5239903494184244e-15 6.681440627102305e-15 0.0 0.0 7.951386703658792e-16 0.0 0.0 -1.4908850069360235e-16 -5.4837849913305465 -7.786188538125284 -5.5645020140887205 0.0 0.0 -1.4908850069360235e-16 19.948859221332604 21.31365473536085 -80.07303079990885 53.739892687305684 1.5131962465850319e-15 1.7060836775812792e-14 0.0 0.0 -1.5902773407317584e-15 1.3793457181406746e-33 -3.975693351829396e-16 3.975693351829396e-16 -0.8196164052326576 -13.762297563806026 -2.2804665038611827 0.6000963027102343 27.498951165492258 0.23507634780903322 3.1805546814635176e-15 -1.987846675914699e-16 -7.951386703658794e-16
0.0 0.0 829.4182617930519 30.325292697443277 4.759691384920534 3.260581509849952 0.0 0.0 0.0 -0.986975401902564 -16.361923758869427 -0.5756339519153071 1.303553366622674 23.963336726854195 -1.081332983256386 -6.3611093629270335e-15 1.987846675914698e-16 -3.975693351829396e-16 0.0 0.0 0.0 -0.0912751645146211 -1.551749691675938 2.064112365198539 -0.03679253863760584 7.945961179056125e-16 1.6899248869516046e-15 0.0 0.0 4.969616689786745e-17 -15.316042463068033 21.527342548388255 72.82765926178917 -57.50702514607102 7.146915572688234e-15 -3.1075201739671508e-15 0.0 0.0 -1.5902773407317584e-15 0.0 0.0 4.969616689786745e-17 -5.404693106814779 -8.09316986667264 -5.515726449169464 0.0 0.0 4.969616689786745e-17 20.726719332178426 20.79631815457047 -80.3157819385351 51.83042870911166 9.891542372581646e-15 5.802107768264502e-15 -6.361109362927035e-15 -8.827812596100317e-32 1.5902773407317588e-15 0.0 0.0 0.0 -0.8412692081050852 -13.983228672719138 -2.266660237296506 0.6283983959487943 27.563040226990225 0.2522492091842915 0.0 0.0 -7.951386703658792e-16
0.0 0.0 829.4182617930519 29.95045959062932 4.662170014488675 3.292389877341749 0.0 0.0 1.987846675914698e-16 -0.9818230470912928 -16.05056028012678 -0.6609505119256931 1.2637613367323999 23.589297444273157 -1.0120613187926089 0.0 0.0 0.0 0.0 0.0 1.987846675914698e-16 -0.08405890360116564 -1.4080904200360862 1.9402654862985198 -0.08324591872883134 -7.939109871395722e-16 -1.6902468632209127e-15 0.0 0.0 3.9756933518293955e-16 -15.476652356608218 21.51832687879555 72.50905552183889 -59.77688567424213 -9.715613131374254e-15 2.0095181499780192e-14 0.0 0.0 -8.746525374024672e-15 0.0 0.0 3.9756933518293955e-16 -5.130331635722355 -8.312089548698069 -5.3854270272614215 0.0 0.0 3.9756933518293955e-16 21.482991349524337 20.536938247033074 -80.67912468370737 49.38974483851738 -7.340246122642025e-15 6.8760502962699195e-15 0.0 0.0 -3.1805546814635168e-15 0.0 0.0 1.987846675914698e-16 -0.8511925166747916 -13.945322572915888 -2.2587201928724947 0.6564957903440146 27.464882148389147 0.27929795142801844 0.0 0.0 -7.951386703658792e-16
0.0 0.0 829.4182617930519 29.84163702043842 4.579531519722324 3.4103748404819494 0.0 0.0 -1.987846675914698e-16 -1.0217040101681865 -15.793245007866668 -0.8621561543658137 1.2362141554311652 23.128002764084382 -0.9370583484764181 0.0 0.0 0.0 0.0 0.0 -1.987846675914698e-16 -0.08412249597418268 -1.3317160401920836 1.6793027089030976 -0.20202452192710185 9.928704238248679e-16 5.981053584905975e-16 0.0 0.0 1.987846675914698e-16 -15.514722752085845 21.360639412020046 71.91145028484364 -62.8205608787147 1.2640792482398156e-15 4.032745860274534e-15 0.0 0.0 0.0 0.0 0.0 1.987846675914698e-16 -4.785966911424836 -8.457127296483348 -5.229900056921552 0.0 0.0 1.987846675914698e-16 21.88304250264973 20.38973938584248 -80.92401667147168 47.37820321322092 -1.0372369366163034e-14 8.024009666129152e-15 0.0 0.0 -1.5902773407317584e-15 0.0 0.0 -1.987846675914698e-16 -0.8894965794955321 -13.782841541827315 -2.391479212065184 0.6834729065217823 27.165044374827076 0.337140857373598 0.0 0.0 0.0
0.0 0.0 829.4182617930519 29.59361739246188 4.4094665318657205 3.507945773424127 0.0 0.0 2.981770013872047e-16 -1.0455053826923484 -15.405807668732775 -1.02104288474214 1.2177923974166616 22.667683285898093 -0.8616542365929087 3.1805546814635168e-15 1.1034765745125397e-32 3.975693351829396e-16 0.0 0.0 2.981770013872047e-16 -0.0851577504810422 -1.28376863547305 1.411597603431721 -0.3316336937838214 2.0324234774908147e-16 -1.5399994302993434e-15 -3.1805546814635168e-15 1.9878466759146985e-16 -1.1927080055488188e-15 -15.515890068047394 20.596330222218903 70.98095444263829 -66.59629785242426 5.9323459474329545e-15 -3.238365220950432e-15 0.0 0.0 1.5902773407317584e-15 -3.1805546814635168e-15 1.9878466759146985e-16 -1.1927080055488188e-15 -4.264029362860352 -8.589089365392638 -4.973243992914588 -3.1805546814635168e-15 1.9878466759146985e-16 -1.1927080055488188e-15 21.854057283661202 19.914410869841088 -80.72642803767633 45.74591794756804 -1.7903092793251683e-14 -9.707333299582275e-15 0.0 0.0 -3.1805546814635168e-15 0.0 0.0 2.981770013872047e-16 -0.921584575773213 -13.608740789101624 -2.5093099825713003 0.7143029107881447 27.077940869889833 0.41118271496069797 -3.1805546814635168e-15 -2.9817700138720468e-15 -7.951386703658792e-16
0.0 0.0 829.4182617930519 29.13051643850823 3.9472040973869316 3.7224153857239446 0.0 0.0 -9.93923337957349e-17 -1.0944087194143435 -14.650486218048691 -1.292357752678049 1.2294643860786685 22.059070065650452 -0.6793554443917907 0.0 0.0 0.0 0.0 0.0 -9.93923337957349e-17 -0.08571360180898598 -1.1714230054084875 0.9524117849422109 -0.551822837887365 5.982616008326415e-16 -3.946929564509986e-16 0.0 0.0 1.987846675914698e-16 -15.324482263473312 18.544594263480825 69.74434525699525 -70.97396684448981 -1.866769523138306e-14 4.268436213966978e-15 0.0 0.0 1.5902773407317584e-15 0.0 0.0 1.987846675914698e-16 -3.500018587835821 -8.532381057288509 -4.73381758857741 0.0 0.0 1.987846675914698e-16 21.5294027883919 18.823870508748726 -80.13591272855835 44.26189663346132 -1.0036878021519802e-14 6.483520640266853e-16 0.0 0.0 -3.1805546814635168e-15 0.0 0.0 -9.93923337957349e-17 -0.9798267673648317 -13.137534716769279 -2.683734964696101 0.8209649675560838 26.93721791438773 0.5308885966457639 -3.1805546814635168e-15 -2.9817700138720468e-15 -8.276074308844047e-32
